<?xml version="1.0" encoding="UTF-8"?>
<svg version="1.1" xmlns="http://www.w3.org/2000/svg" width="476" height="524">
<path d="M0 0 C0 0.66 0 1.32 0 2 C0.598125 2.2475 1.19625 2.495 1.8125 2.75 C8.46997813 6.55427322 11.7603055 16.03466736 14 23 C16.85257685 35.36116635 16.14648989 50.72854953 10 62 C7.52163246 65.19865792 4.85303543 68.13311488 2 71 C3.09914002 73.73128766 4.20409428 76.45997446 5.3125 79.1875 C5.7755957 80.34088867 5.7755957 80.34088867 6.24804688 81.51757812 C7.90160811 85.57315464 9.68556074 89.2689643 12 93 C12.51812445 94.27653849 13.00102596 95.5682889 13.4375 96.875 C14.64169126 100.2416918 16.1801745 103.13467523 18.015625 106.19140625 C19.72061092 109.32397959 20.82086889 112.63947635 22 116 C23.14597656 115.95359375 24.29195313 115.9071875 25.47265625 115.859375 C27.00257791 115.82183091 28.53252801 115.78543359 30.0625 115.75 C30.81466797 115.71648437 31.56683594 115.68296875 32.34179688 115.6484375 C38.12137667 115.5483582 41.18580945 116.81803807 46 120 C48.02023154 121.44145857 48.02023154 121.44145857 50 122 C52.2697877 121.2067083 52.2697877 121.2067083 54.5 119.625 C55.36367188 119.068125 56.22734375 118.51125 57.1171875 117.9375 C58.06851562 117.298125 59.01984375 116.65875 60 116 C61.64355469 114.9171875 61.64355469 114.9171875 63.3203125 113.8125 C66.22420993 111.89029839 69.11624068 109.95223569 72 108 C71.45042765 105.10360519 70.81046251 102.38679046 69.9375 99.5625 C67.68633356 90.65939062 67.63006372 79.70668293 72.36328125 71.69140625 C76.88020144 64.68625707 76.88020144 64.68625707 80 62 C80.66 62 81.32 62 82 62 C82 61.34 82 60.68 82 60 C94.95018477 53.54520571 105.91374242 49.96364818 120.39453125 53.6015625 C124.72160857 55.10735231 128.40389206 57.21301635 132 60 C132 60.66 132 61.32 132 62 C132.99 62.33 133.98 62.66 135 63 C142.09684265 71.81560923 144.71444451 82.84078865 144.3359375 93.9921875 C143.05823011 105.43212579 138.01254011 113.09470307 129.29296875 120.4375 C124.12769156 124.14450632 118.7855336 125.2538784 112.53515625 125.23046875 C111.32279297 125.22853516 110.11042969 125.22660156 108.86132812 125.22460938 C107.60771484 125.21236328 106.35410156 125.20011719 105.0625 125.1875 C103.81275391 125.18685547 102.56300781 125.18621094 101.27539062 125.18554688 C91.60688222 125.1393352 91.60688222 125.1393352 87.171875 124.12109375 C82.08792628 123.92700211 79.08349116 126.85417077 75.1875 129.875 C73.68137347 130.99791091 72.17488072 132.12033084 70.66796875 133.2421875 C70.01078857 133.7460498 69.3536084 134.24991211 68.67651367 134.76904297 C67 136 67 136 65 137 C65.01160156 138.12277344 65.02320313 139.24554688 65.03515625 140.40234375 C65.0895979 148.02247315 65.04328136 155.43621012 64 163 C64 163.99 64 164.98 64 166 C64 166.66 64 167.32 64 168 C64.99 168 65.98 168 67 168 C67 168.66 67 169.32 67 170 C67.721875 170.25652344 68.44375 170.51304687 69.1875 170.77734375 C72.16291003 172.07082061 74.41290079 173.61034435 77 175.5625 C80.16349513 177.92325284 83.33423579 180.24857816 86.60546875 182.45703125 C87.20166016 182.86042725 87.79785156 183.26382324 88.41210938 183.67944336 C89.58310943 184.46800046 90.75753679 185.25149497 91.93554688 186.02954102 C93.32535864 186.96994372 94.66803087 187.97931777 96 189 C96 189.66 96 190.32 96 191 C96.57621094 191.11601562 97.15242188 191.23203125 97.74609375 191.3515625 C100.17478439 192.05028459 101.93400734 193.02162317 104.0625 194.375 C104.73410156 194.79523438 105.40570313 195.21546875 106.09765625 195.6484375 C107.94528523 196.96112667 109.41320346 198.39091699 111 200 C113.09989652 201.17574711 113.09989652 201.17574711 115 202 C115 202.66 115 203.32 115 204 C115.53109375 204.24492187 116.0621875 204.48984375 116.609375 204.7421875 C119.6382465 206.33580943 122.41223973 208.21259634 125.25 210.125 C126.32765625 210.84945312 127.4053125 211.57390625 128.515625 212.3203125 C129.33546875 212.87460938 130.1553125 213.42890625 131 214 C131.65484375 213.55269531 132.3096875 213.10539063 132.984375 212.64453125 C143.50040346 205.67840505 151.97155859 201.57849219 164.6875 201.4375 C166.00596924 201.41538452 166.00596924 201.41538452 167.35107422 201.39282227 C173.69110577 201.49231346 178.41962549 203.0483532 184 206 C184.66 206.33 185.32 206.66 186 207 C186 207.66 186 208.32 186 209 C186.66 209 187.32 209 188 209 C188 209.66 188 210.32 188 211 C188.66 211 189.32 211 190 211 C197.64948816 220.05860439 199.67053229 229.93077702 199.5 241.5625 C199.51546875 242.62146484 199.5309375 243.68042969 199.546875 244.77148438 C199.50306724 253.65898448 197.3267182 261.73629337 192 269 C191.34 269 190.68 269 190 269 C190 269.66 190 270.32 190 271 C189.34 271 188.68 271 188 271 C187.75765625 271.60585938 187.5153125 272.21171875 187.265625 272.8359375 C185.73812165 275.44777965 184.40771263 276.22382497 181.75 277.625 C181.00234375 278.02976562 180.2546875 278.43453125 179.484375 278.8515625 C172.65587909 282.00813137 166.87092147 282.3061366 159.4375 282.25 C158.40947266 282.25773437 157.38144531 282.26546875 156.32226562 282.2734375 C155.32775391 282.27085937 154.33324219 282.26828125 153.30859375 282.265625 C152.40939209 282.26336914 151.51019043 282.26111328 150.58374023 282.25878906 C147.74765802 281.97472527 145.61735821 281.09262295 143 280 C142.01 280 141.02 280 140 280 C139.34 281.32 138.68 282.64 138 284 C137.34 284 136.68 284 136 284 C135.5978125 284.8353125 135.5978125 284.8353125 135.1875 285.6875 C133.89100504 288.21225334 132.57523677 290.63714484 131 293 C130.34 293 129.68 293 129 293 C128.74992187 293.54914063 128.49984375 294.09828125 128.2421875 294.6640625 C126.76596022 297.44011254 124.99890324 299.85053413 123.125 302.375 C120.86637785 305.43150497 118.65096902 308.47204159 116.625 311.6875 C116.08875 312.450625 115.5525 313.21375 115 314 C114.34 314 113.68 314 113 314 C112.731875 314.56203125 112.46375 315.1240625 112.1875 315.703125 C110.9196021 318.15550646 109.51027658 320.43927683 108 322.75 C107.484375 323.54921875 106.96875 324.3484375 106.4375 325.171875 C105.7259375 326.07679688 105.7259375 326.07679688 105 327 C104.34 327 103.68 327 103 327 C104.10308392 329.94155712 105.32244985 332.5696614 106.875 335.3125 C112.05624033 345.69460657 114.48070568 356.77349858 111 368 C108.58870908 375.05929965 105.32161668 380.78558888 99 385 C98.01 385 97.02 385 96 385 C96 385.66 96 386.32 96 387 C87.28236512 390.58045718 79.2776578 391.16723131 69.9375 391.125 C69.07833984 391.12886719 68.21917969 391.13273437 67.33398438 391.13671875 C62.44919022 391.12925535 57.81577718 390.82332147 53 390 C53 390.66 53 391.32 53 392 C52.34 392 51.68 392 51 392 C51 392.66 51 393.32 51 394 C50.34 394 49.68 394 49 394 C49 394.66 49 395.32 49 396 C48.21625 396.2475 47.4325 396.495 46.625 396.75 C43.59062001 398.19494285 43.32970275 399.05565819 42 402 C41.01 402.33 40.02 402.66 39 403 C39 403.66 39 404.32 39 405 C38.34 405 37.68 405 37 405 C36.76410156 405.57363281 36.52820313 406.14726562 36.28515625 406.73828125 C34.71167911 409.50740972 32.85196589 411.11309973 30.4375 413.1875 C24.63494856 418.27627884 19.16181396 423.64708739 13.8671875 429.26171875 C12 431 12 431 10 431 C10.32379639 431.69891357 10.64759277 432.39782715 10.98120117 433.11791992 C12.82881947 438.34464746 12.32712499 443.8222789 12.3125 449.3125 C12.32861328 450.51068359 12.34472656 451.70886719 12.36132812 452.94335938 C12.3672808 463.74746293 9.89835309 471.54951747 3 480 C-4.79073533 487.7053106 -14.22940636 490.36865332 -24.9375 490.5 C-32.49517701 490.45420547 -39.03699359 489.05826164 -46 486 C-46 485.34 -46 484.68 -46 484 C-46.598125 483.87625 -47.19625 483.7525 -47.8125 483.625 C-50 483 -50 483 -53 481 C-53 480.34 -53 479.68 -53 479 C-53.66 479 -54.32 479 -55 479 C-62.082903 465.83649159 -65.51182265 454.2384088 -61.4375 439.375 C-57.83345454 428.87680485 -51.92370613 421.21712525 -42 416 C-40.33955535 415.63694015 -38.67309967 415.29937664 -37 415 C-39.84647362 383.64081748 -39.84647362 383.64081748 -49.5 354 C-52.35736946 348.28526109 -54.18667472 342.34393716 -55 336 C-55.66 336 -56.32 336 -57 336 C-57.51949219 334.81664062 -58.03898438 333.63328125 -58.57421875 332.4140625 C-60.00737879 329.15280421 -61.46656866 325.90452821 -62.9375 322.66015625 C-64.13192041 320.01255976 -65.20691182 317.4221443 -66.1875 314.68359375 C-67.21869557 311.98073348 -68.02440498 310.11868719 -70 308 C-74.26338159 306.19754941 -78.40597567 305.43017275 -83 305 C-84.02738281 304.88914062 -85.05476562 304.77828125 -86.11328125 304.6640625 C-90.00341144 305.11677048 -91.17279509 306.62064003 -93.75 309.5 C-95.13647404 311.02795098 -96.54689555 312.53527071 -98 314 C-98.66 314 -99.32 314 -100 314 C-100 314.66 -100 315.32 -100 316 C-101.6796875 317.7265625 -101.6796875 317.7265625 -103.875 319.625 C-104.95394531 320.57246094 -104.95394531 320.57246094 -106.0546875 321.5390625 C-108 323 -108 323 -110 323 C-110 323.66 -110 324.32 -110 325 C-110.66 325 -111.32 325 -112 325 C-112 325.66 -112 326.32 -112 327 C-112.66 327 -113.32 327 -114 327 C-114 327.66 -114 328.32 -114 329 C-114.66 329 -115.32 329 -116 329 C-116 329.66 -116 330.32 -116 331 C-117.5390625 332.515625 -117.5390625 332.515625 -119.625 334.25 C-122.34047759 336.54660073 -124.91262264 338.87150775 -127.375 341.4375 C-130 344 -130 344 -132 344 C-132 344.66 -132 345.32 -132 346 C-132.64582031 346.4223291 -133.29164063 346.8446582 -133.95703125 347.27978516 C-136.23077976 348.84355135 -136.23077976 348.84355135 -136.57421875 351.52099609 C-136.61160156 352.51180176 -136.64898437 353.50260742 -136.6875 354.5234375 C-136.74397705 355.62123535 -136.8004541 356.7190332 -136.85864258 357.85009766 C-136.9286145 359.59492432 -136.9286145 359.59492432 -137 361.375 C-137.75705374 374.28281037 -139.05935239 385.34281505 -147 396 C-147.66 396 -148.32 396 -149 396 C-149 396.66 -149 397.32 -149 398 C-150.57421875 399.21875 -150.57421875 399.21875 -152.6875 400.5 C-153.37199219 400.9228125 -154.05648437 401.345625 -154.76171875 401.78125 C-165.0109814 407.36200034 -176.917389 406.72429691 -188 404 C-191.11815853 402.86258572 -194.07100738 401.55910202 -197 400 C-197 399.34 -197 398.68 -197 398 C-197.99 398 -198.98 398 -200 398 C-200 397.34 -200 396.68 -200 396 C-200.91072266 395.61134766 -200.91072266 395.61134766 -201.83984375 395.21484375 C-206.95151968 392.34010376 -209.13091169 386.24497775 -210.8125 380.875 C-213.54902622 369.56923741 -213.01398112 357.00295301 -207.74609375 346.5 C-202.31535009 337.73978134 -193.23189029 329.63330896 -183.1875 326.6875 C-173.11847942 324.63822771 -163.66080139 325.95993999 -154.625 330.8125 C-152.14440238 332.25891809 -152.14440238 332.25891809 -149.9375 331.5 C-147.81118222 329.91902441 -147.81118222 329.91902441 -145.4375 327.4375 C-143 325 -143 325 -140 324 C-140 323.34 -140 322.68 -140 322 C-139.34 322 -138.68 322 -138 322 C-138 321.34 -138 320.68 -138 320 C-136.36567245 318.52230782 -134.66523632 317.11730681 -132.9375 315.75 C-131.93847656 314.94949219 -130.93945312 314.14898437 -129.91015625 313.32421875 C-128.94980469 312.55722656 -127.98945313 311.79023438 -127 311 C-122.39379079 307.51278844 -122.39379079 307.51278844 -119 303 C-118.34 303 -117.68 303 -117 303 C-117 302.34 -117 301.68 -117 301 C-115.65778342 300.04546961 -114.30102825 299.11133132 -112.9375 298.1875 C-110.03454649 295.74963235 -109.07907912 294.71440794 -108.65625 290.89453125 C-108.93378783 287.54480389 -109.38629374 284.30392547 -110 281 C-110.94186573 274.9301986 -111.09977484 269.1306096 -111 263 C-111.825 262.7525 -112.65 262.505 -113.5 262.25 C-117 261 -117 261 -120.5 259.1875 C-124.13040229 257.31352091 -127.82658521 255.9576798 -131.6875 254.625 C-137.41307694 252.63165099 -142.81570552 250.28648439 -148.28515625 247.68359375 C-153.8178895 245.11577018 -159.52203795 242.94348135 -165.19775391 240.71557617 C-166.43211182 240.22988159 -166.43211182 240.22988159 -167.69140625 239.734375 C-168.79270874 239.30463379 -168.79270874 239.30463379 -169.91625977 238.86621094 C-172 238 -172 238 -174.09448242 236.91748047 C-176.64469931 235.68958616 -178.93802138 235.57585562 -181.75 235.375 C-182.73484375 235.30023438 -183.7196875 235.22546875 -184.734375 235.1484375 C-185.48203125 235.09945312 -186.2296875 235.05046875 -187 235 C-187 235.66 -187 236.32 -187 237 C-187.66 237 -188.32 237 -189 237 C-189.33 237.99 -189.66 238.98 -190 240 C-198.75884204 248.35218151 -208.43483529 255.1289663 -220.6875 256.375 C-231.78667326 256.01074142 -242.8710292 250.19976947 -250.546875 242.41796875 C-252.87104007 239.70264518 -254.96968178 236.94017037 -257 234 C-257.47695313 233.32710937 -257.95390625 232.65421875 -258.4453125 231.9609375 C-263.05656962 223.86705263 -262.35000366 211.52513692 -260.19921875 202.72265625 C-259.27700256 200.35480387 -258.26072908 198.20286237 -257 196 C-256.46375 194.96875 -255.9275 193.9375 -255.375 192.875 C-254.694375 191.946875 -254.694375 191.946875 -254 191 C-253.34 191 -252.68 191 -252 191 C-252 190.34 -252 189.68 -252 189 C-251.34 189 -250.68 189 -250 189 C-249.62875 188.10474609 -249.62875 188.10474609 -249.25 187.19140625 C-246.32133084 182.05708312 -239.96761663 179.10156778 -234.5625 177.125 C-220.99342477 173.59534959 -206.33084056 175.51315971 -194 182 C-194 182.66 -194 183.32 -194 184 C-192.824375 184.3403125 -192.824375 184.3403125 -191.625 184.6875 C-189 186 -189 186 -187.6875 188.625 C-187.460625 189.40875 -187.23375 190.1925 -187 191 C-186.34 191 -185.68 191 -185 191 C-184.20219439 192.99755909 -183.41207575 194.99818885 -182.625 197 C-182.15320313 198.18722656 -181.68140625 199.37445313 -181.1953125 200.59765625 C-180.21078468 203.40002138 -179.76053501 205.5319683 -179.5 208.4375 C-177.30075505 213.66070675 -173.79998177 214.55419247 -168.703125 216.63671875 C-164.11252579 218.32671783 -159.52066696 219.9981799 -154.875 221.53125 C-151.4925176 222.73428577 -148.28372883 224.24023 -145.03515625 225.765625 C-137.61654763 229.23323756 -130.05476499 232.25445689 -122.4375 235.25 C-120.4255523 236.04366201 -118.41404956 236.83841028 -116.40333557 237.63519287 C-114.60371638 238.34799716 -112.80275408 239.05740781 -111.00170898 239.76660156 C-108 241 -108 241 -105.84399414 242.16308594 C-103.73043693 243.27552342 -103.73043693 243.27552342 -100 243 C-98.28891311 241.37897032 -96.62746694 239.70496537 -95 238 C-86.00317293 231.30023516 -74.11814739 229.05330626 -63 230 C-61.65973966 230.30428788 -60.32359039 230.62986846 -59 231 C-56.41150094 228.51935507 -55.71682566 226.44219815 -55.5546875 222.96484375 C-55.6629907 216.98590557 -58.4393767 212.89516583 -61.625 208 C-62.14707031 207.16210938 -62.66914063 206.32421875 -63.20703125 205.4609375 C-66.27615503 200.56549562 -69.47364681 195.75719504 -72.71020508 190.97119141 C-73.90844216 189.1399277 -75.00008577 187.28739845 -76.0625 185.375 C-77.46598637 182.9302173 -78.84857872 180.7587829 -80.5 178.5 C-87 169.58513932 -87 169.58513932 -87 166 C-87.66 166 -88.32 166 -89 166 C-89.33 164.68 -89.66 163.36 -90 162 C-90.66 162 -91.32 162 -92 162 C-93.2890625 160.5390625 -93.2890625 160.5390625 -94.625 158.625 C-95.07101563 157.99851563 -95.51703125 157.37203125 -95.9765625 156.7265625 C-97 155 -97 155 -97 153 C-97.66 153 -98.32 153 -99 153 C-102 149.53846154 -102 149.53846154 -102 147 C-102.66 147 -103.32 147 -104 147 C-105.4453125 145.53125 -105.4453125 145.53125 -107.125 143.5 C-111.69689055 138.12802861 -116.46071939 133.01026381 -122 128.625 C-122.66 128.08875 -123.32 127.5525 -124 127 C-124 126.34 -124 125.68 -124 125 C-124.66 125 -125.32 125 -126 125 C-126 124.34 -126 123.68 -126 123 C-126.91007813 123.32226562 -127.82015625 123.64453125 -128.7578125 123.9765625 C-134.06245102 125.48341055 -139.39811504 125.36824675 -144.875 125.375 C-145.91269531 125.39949219 -146.95039063 125.42398438 -148.01953125 125.44921875 C-157.77592713 125.48612819 -164.99131436 122.82897575 -172 116 C-172 115.34 -172 114.68 -172 114 C-172.66 114 -173.32 114 -174 114 C-174.77831471 112.67101994 -175.54717244 111.33650123 -176.3125 110 C-176.74175781 109.2575 -177.17101562 108.515 -177.61328125 107.75 C-180.95826873 101.11656004 -182.60659056 95.33465843 -182.625 87.875 C-182.62951172 87.05475342 -182.63402344 86.23450684 -182.63867188 85.3894043 C-182.41128416 77.03859061 -179.46041798 70.97509241 -175 64 C-174.34 64 -173.68 64 -173 64 C-172.01 62.02 -172.01 62.02 -171 60 C-170.34 60 -169.68 60 -169 60 C-169 59.34 -169 58.68 -169 58 C-167.06374902 57.01836578 -165.12595461 56.03977546 -163.1875 55.0625 C-162.10855469 54.51722656 -161.02960938 53.97195312 -159.91796875 53.41015625 C-151.00748505 49.10401888 -139.28234868 49.97059206 -129.9375 52.6875 C-124.7655671 54.51327028 -120.3986937 56.72254195 -116 60 C-116 60.66 -116 61.32 -116 62 C-115.34 62 -114.68 62 -114 62 C-112 65 -112 65 -112 69 C-111.34 69 -110.68 69 -110 69 C-107.66553803 78.39343032 -105.42697293 87.97381241 -107.5859375 97.6171875 C-108.16882273 100.32887096 -108.45960447 102.25563102 -108 105 C-105.86820315 107.84089029 -103.50109754 110.04763552 -100.84765625 112.40625 C-97.08988027 115.8289705 -94.06087754 119.67820347 -90.91015625 123.65234375 C-89.10679549 125.96484629 -89.10679549 125.96484629 -87.24609375 127.69140625 C-86 129 -86 129 -86 131 C-85.34 131 -84.68 131 -84 131 C-84 131.66 -84 132.32 -84 133 C-83.34 133 -82.68 133 -82 133 C-80.625 134.6953125 -80.625 134.6953125 -79 137.125 C-75.59201857 142.14051983 -72.09441505 147.07919944 -68.55273438 152.00048828 C-67.3614225 153.66213008 -66.17775902 155.32872757 -65 157 C-64.60731934 157.55623047 -64.21463867 158.11246094 -63.81005859 158.68554688 C-61 162.76167582 -61 162.76167582 -61 165 C-60.34 165 -59.68 165 -59 165 C-58.60167969 165.73605469 -58.20335937 166.47210938 -57.79296875 167.23046875 C-57.26316406 168.20628906 -56.73335937 169.18210938 -56.1875 170.1875 C-55.40439453 171.63189453 -55.40439453 171.63189453 -54.60546875 173.10546875 C-53.55829123 174.99344574 -52.45814312 176.85326887 -51.30078125 178.67578125 C-50 181 -50 181 -50 184 C-49.34 184 -48.68 184 -48 184 C-47.443125 185.134375 -46.88625 186.26875 -46.3125 187.4375 C-44.34843755 191.3937835 -42.19043278 195.2120647 -39.953125 199.01953125 C-39 201 -39 201 -39 204 C-35.04048435 201.89650731 -32.69034111 199.69404123 -30 196.125 C-25.70114863 190.55511348 -25.70114863 190.55511348 -23.1875 188.125 C-20.95738769 186.07813577 -20.95738769 186.07813577 -19.3125 183.6875 C-18.879375 183.130625 -18.44625 182.57375 -18 182 C-17.34 182 -16.68 182 -16 182 C-15.34 180.35 -14.68 178.7 -14 177 C-13.34 177 -12.68 177 -12 177 C-12 176.34 -12 175.68 -12 175 C-11.34 175 -10.68 175 -10 175 C-10 174.01 -10 173.02 -10 172 C-9.34 172 -8.68 172 -8 172 C-8.02094727 171.41210693 -8.04189453 170.82421387 -8.06347656 170.21850586 C-8.58349586 153.34256317 -7.83943917 139.38071879 2 125 C3.60031344 121.79937313 2.03173691 119.27728194 1 116 C0.34 116 -0.32 116 -1 116 C-1.62455078 114.48986328 -1.62455078 114.48986328 -2.26171875 112.94921875 C-4.19570464 108.43885096 -6.52726125 104.160939 -8.88085938 99.86035156 C-11.12468567 95.72902347 -13.09268885 91.55059473 -15 87.25 C-16.80905387 83.60751148 -17.9520154 81.42230177 -21.8125 79.9375 C-23.20095357 79.59369245 -24.59768674 79.28200084 -26 79 C-27.50629041 78.54099031 -29.0063896 78.06122705 -30.5 77.5625 C-31.25152344 77.31371094 -32.00304687 77.06492187 -32.77734375 76.80859375 C-39.109364 74.50502926 -45.68432511 71.15640536 -51 67 C-51 66.34 -51 65.68 -51 65 C-51.66 65 -52.32 65 -53 65 C-53 64.34 -53 63.68 -53 63 C-53.66 63 -54.32 63 -55 63 C-55 62.34 -55 61.68 -55 61 C-55.59425781 60.78988281 -56.18851563 60.57976562 -56.80078125 60.36328125 C-59.82664768 58.48756653 -60.65845989 56.37529314 -62.1875 53.1875 C-62.95126953 51.63095703 -62.95126953 51.63095703 -63.73046875 50.04296875 C-68.01163566 39.78134098 -66.75287802 28.22033396 -63.21484375 17.93359375 C-61.53258282 13.87128521 -59.62910901 10.52854104 -57 7 C-56.34 7 -55.68 7 -55 7 C-54.73832031 6.3915625 -54.47664062 5.783125 -54.20703125 5.15625 C-50.68569971 -1.13428401 -42.07394633 -3.41272968 -35.57421875 -5.27734375 C-22.84702515 -7.85060147 -11.24522892 -6.13376123 0 0 Z M51 183 C51 183.66 51 184.32 51 185 C50.46375 185.103125 49.9275 185.20625 49.375 185.3125 C46.87009127 185.93665841 46.87009127 185.93665841 44.35546875 187.51171875 C40.46467063 189.23743945 37.11990734 189.53373292 32.9375 189.5 C32.19669189 189.50008057 31.45588379 189.50016113 30.69262695 189.50024414 C24.30691766 189.3347828 19.42779321 187.7322096 13.63671875 184.99609375 C10.82946205 183.93557455 9.74112189 183.91266662 7 185 C7 185.66 7 186.32 7 187 C6.34 187 5.68 187 5 187 C3.29515534 188.68522729 3.29515534 188.68522729 1.5625 190.8125 C-1.84417609 194.85194962 -1.84417609 194.85194962 -3.72265625 196.63671875 C-5.22791081 197.93187886 -5.22791081 197.93187886 -5 200 C-5.66 200 -6.32 200 -7 200 C-8.6751237 201.8827572 -8.6751237 201.8827572 -10.375 204.25 C-12.22633203 206.7456282 -13.99923877 208.99925747 -16.2265625 211.171875 C-18.23209651 212.81475653 -18.23209651 212.81475653 -18 215 C-18.66 215 -19.32 215 -20 215 C-20 215.66 -20 216.32 -20 217 C-20.66 217 -21.32 217 -22 217 C-22 217.99 -22 218.98 -22 220 C-22.66 220 -23.32 220 -24 220 C-26.38709347 224.49335242 -26.2440855 228.19421812 -25 233 C-23.72927975 235.48009222 -23.72927975 235.48009222 -22 237 C-21.34 237 -20.68 237 -20 237 C-20 237.66 -20 238.32 -20 239 C-19.34 239 -18.68 239 -18 239 C-17.79375 239.721875 -17.5875 240.44375 -17.375 241.1875 C-15.54877291 244.9229645 -13.25713193 246.43587487 -10 249 C-9.505 249.99 -9.505 249.99 -9 251 C-8.34 251 -7.68 251 -7 251 C-6.71125 251.598125 -6.4225 252.19625 -6.125 252.8125 C-4.95257974 255.19327792 -4.95257974 255.19327792 -3 258 C-2.34 258 -1.68 258 -1 258 C-1 258.66 -1 259.32 -1 260 C-0.34 260 0.32 260 1 260 C1 260.66 1 261.32 1 262 C1.66 262 2.32 262 3 262 C3 262.66 3 263.32 3 264 C3.66 264 4.32 264 5 264 C5 264.66 5 265.32 5 266 C5.66 266 6.32 266 7 266 C7.226875 266.53625 7.45375 267.0725 7.6875 267.625 C10.02231629 271.84990566 13.32375317 275.84893129 17 279 C17.66 279 18.32 279 19 279 C19.2475 279.556875 19.495 280.11375 19.75 280.6875 C21.22924818 283.42410913 22.93467439 285.67650869 25 288 C25.66 288 26.32 288 27 288 C27 288.66 27 289.32 27 290 C27.66 290 28.32 290 29 290 C29.2475 290.61875 29.495 291.2375 29.75 291.875 C30.81460222 294.14291141 30.81460222 294.14291141 33 294.9375 C35.74986668 296.39836667 36.08833304 298.11305462 37 301 C37.66 301 38.32 301 39 301 C39 301.66 39 302.32 39 303 C40.12539956 304.15950258 41.25903276 305.31198689 42.4296875 306.42578125 C44.9403217 308.94266081 47.17406847 311.69660986 49.44921875 314.42578125 C49.96097656 314.94527344 50.47273438 315.46476563 51 316 C51.66 316 52.32 316 53 316 C53 316.66 53 317.32 53 318 C53.66 318 54.32 318 55 318 C55.33 318.99 55.66 319.98 56 321 C56.59425781 320.85199951 57.18851562 320.70399902 57.80078125 320.55151367 C62.44592697 319.49542932 66.66803613 318.88391402 71.4375 319.11328125 C81.18924945 319.88716311 81.18924945 319.88716311 89.97949219 316.52148438 C93.55175803 312.56251919 98 306.49008105 98 301 C98.66 301 99.32 301 100 301 C101.14898441 299.52776071 101.14898441 299.52776071 102.23046875 297.5859375 C104.1138224 294.44724529 106.05743843 291.38049157 108.11328125 288.3515625 C108.63857422 287.57425781 109.16386719 286.79695313 109.70507812 285.99609375 C110.79372976 284.39023338 111.88495498 282.78611521 112.97851562 281.18359375 C113.49736328 280.41402344 114.01621094 279.64445312 114.55078125 278.8515625 C115.02169189 278.15885254 115.49260254 277.46614258 115.9777832 276.75244141 C117.16795202 275.05020201 117.16795202 275.05020201 117 273 C117.66 273 118.32 273 119 273 C119.81567174 271.56429734 120.62742093 270.12636566 121.4375 268.6875 C122.11619141 267.48673828 122.11619141 267.48673828 122.80859375 266.26171875 C124.70858044 262.78082669 124.70858044 262.78082669 124.4765625 258.96875 C124.19554687 258.1540625 123.91453125 257.339375 123.625 256.5 C121.73311384 250.20778933 121.59613014 244.07619092 121.64306641 237.55078125 C121.5921905 232.48706543 121.5921905 232.48706543 118.60546875 228.48046875 C116.32260226 227.18330773 114.58080916 226.3823421 112 226 C112 225.34 112 224.68 112 224 C111.01 224 110.02 224 109 224 C109 223.34 109 222.68 109 222 C106.69614555 220.24248403 106.69614555 220.24248403 103.8125 218.5 C102.84957031 217.8915625 101.88664062 217.283125 100.89453125 216.65625 C98.30373304 215.17379596 95.79817831 214.02309993 93 213 C93 212.34 93 211.68 93 211 C91.05385473 209.40651139 91.05385473 209.40651139 88.625 207.875 C87.81289063 207.33617187 87.00078125 206.79734375 86.1640625 206.2421875 C84.12677974 204.8340587 84.12677974 204.8340587 82 205 C82 204.34 82 203.68 82 203 C80.61660596 202.02150177 79.22405888 201.05346707 77.7890625 200.15234375 C75.29966057 198.54890801 72.96631325 196.7490023 70.61328125 194.953125 C68.88181586 193.74567046 68.88181586 193.74567046 66 194 C66 193.34 66 192.68 66 192 C65.01 192 64.02 192 63 192 C63 191.34 63 190.68 63 190 C61.68 189.67 60.36 189.34 59 189 C59 188.34 59 187.68 59 187 C58.01 187 57.02 187 56 187 C56 186.34 56 185.68 56 185 C54.35 184.34 52.7 183.68 51 183 Z M-35 254 C-36.14884245 256.2976849 -36.22594445 257.87927844 -36.39453125 260.4375 C-37.95150484 281.37709005 -37.95150484 281.37709005 -44.25 290.125 C-46.66274878 294.08880157 -46.45861249 296.41387509 -46 301 C-45.34 301.66 -44.68 302.32 -44 303 C-43.17398501 305.1041645 -42.41295419 307.23408308 -41.6875 309.375 C-40.11107112 313.94003877 -38.45582443 318.42874135 -36.5625 322.875 C-28.84675875 341.11220658 -22.88556239 359.57695562 -19 379 C-18.79503906 380.02351563 -18.59007812 381.04703125 -18.37890625 382.1015625 C-17.05799861 389.3716743 -16.38893708 396.70058155 -15.78466797 404.06005859 C-15.2457026 410.24778369 -15.2457026 410.24778369 -13 416 C-10.32728097 417.58918429 -8.60136841 418.01503421 -5.5 417.9375 C-2.82550679 416.93456505 -1.57976916 415.66495334 0.37530518 413.64620972 C2.34995516 411.64541059 4.3910026 409.72478901 6.43896484 407.79907227 C10.61932893 403.85859049 14.76650943 399.88533373 18.89082909 395.88635349 C21.37691782 393.47856736 23.87508739 391.08678021 26.40576172 388.72583008 C29.34156018 385.98557156 32.21334291 383.18535939 35.0859375 380.37890625 C35.99411224 379.54815079 36.90228699 378.71739532 37.83798218 377.86146545 C41.54214977 374.16238595 43.844341 371.75296571 44.31832886 366.41511536 C44.06382509 362.88880381 43.56559307 359.48729044 43 356 C43.00076102 354.31307646 43.03839315 352.62473683 43.1484375 350.94140625 C43.84168136 342.87414732 43.84168136 342.87414732 41.48046875 335.37109375 C39.73993693 333.67310039 38.01184778 332.350881 36 331 C35.67 330.34 35.34 329.68 35 329 C34.34 329 33.68 329 33 329 C33 328.34 33 327.68 33 327 C32.34 327 31.68 327 31 327 C31 326.34 31 325.68 31 325 C30.34 325 29.68 325 29 325 C29 324.34 29 323.68 29 323 C28.34 323 27.68 323 27 323 C27 322.34 27 321.68 27 321 C25.3563186 319.31066078 23.6857124 317.64740076 22 316 C20.9171875 314.6078125 20.9171875 314.6078125 19.8125 313.1875 C19.214375 312.465625 18.61625 311.74375 18 311 C17.34 311 16.68 311 16 311 C16 310.34 16 309.68 16 309 C15.34 309 14.68 309 14 309 C13.75636719 308.43796875 13.51273437 307.8759375 13.26171875 307.296875 C11.75819064 304.55980215 9.93300252 302.54204059 7.8125 300.25 C7.01070313 299.37472656 6.20890625 298.49945313 5.3828125 297.59765625 C4.59648437 296.74042969 3.81015625 295.88320313 3 295 C-0.20428399 291.40297303 -3.37082083 287.81623244 -6.3125 284 C-6.869375 283.34 -7.42625 282.68 -8 282 C-8.66 282 -9.32 282 -10 282 C-10.2371875 281.45859375 -10.474375 280.9171875 -10.71875 280.359375 C-12.34347757 277.36749863 -14.3501877 274.88840601 -16.5 272.25 C-17.69109375 270.77273438 -17.69109375 270.77273438 -18.90625 269.265625 C-19.5971875 268.51796875 -20.288125 267.7703125 -21 267 C-21.66 267 -22.32 267 -23 267 C-23.2475 266.43796875 -23.495 265.8759375 -23.75 265.296875 C-25.21274867 262.60907431 -26.96804873 260.53594518 -29 258.25 C-29.70125 257.45078125 -30.4025 256.6515625 -31.125 255.828125 C-32.80221428 253.76729995 -32.80221428 253.76729995 -35 254 Z " fill="#1F6BB2" transform="translate(269,19)"/>
<path d="M0 0 C1.37575195 -0.04350586 1.37575195 -0.04350586 2.77929688 -0.08789062 C9.39140979 -0.14881016 14.13610396 1.17740616 19.9375 4.3125 C20.5975 4.6425 21.2575 4.9725 21.9375 5.3125 C21.9375 5.9725 21.9375 6.6325 21.9375 7.3125 C22.5975 7.3125 23.2575 7.3125 23.9375 7.3125 C23.9375 7.9725 23.9375 8.6325 23.9375 9.3125 C24.5975 9.3125 25.2575 9.3125 25.9375 9.3125 C25.6075 9.9725 25.2775 10.6325 24.9375 11.3125 C23.6175 10.6525 22.2975 9.9925 20.9375 9.3125 C20.9375 8.3225 20.9375 7.3325 20.9375 6.3125 C20.23882812 6.19132813 19.54015625 6.07015625 18.8203125 5.9453125 C17.91023438 5.77773437 17.00015625 5.61015625 16.0625 5.4375 C15.15757812 5.27507812 14.25265625 5.11265625 13.3203125 4.9453125 C10.9375 4.3125 10.9375 4.3125 8.9375 2.3125 C0.62029304 1.88229964 -7.76244721 2.74218962 -16.0625 3.3125 C-10.32313745 0.44281873 -6.43391416 0.06587625 0 0 Z " fill="#4E7DAD" transform="translate(433.0625,220.6875)"/>
<path d="M0 0 C0.79035645 0.0014502 1.58071289 0.00290039 2.39501953 0.00439453 C3.20084473 0.00455566 4.00666992 0.0047168 4.83691406 0.00488281 C13.5690456 0.16950923 21.3214346 2.29654891 29.08251953 6.37939453 C28.75251953 7.03939453 28.42251953 7.69939453 28.08251953 8.37939453 C25.60751953 7.88439453 25.60751953 7.88439453 23.08251953 7.37939453 C23.08251953 6.71939453 23.08251953 6.05939453 23.08251953 5.37939453 C15.78867848 3.83221613 8.57597397 3.1616004 1.14501953 2.81689453 C-0.16692383 2.75211914 -0.16692383 2.75211914 -1.50537109 2.68603516 C-3.64260042 2.58092552 -5.78002285 2.47975468 -7.91748047 2.37939453 C-5.34286585 -0.19522008 -3.51767183 0.06819272 0 0 Z " fill="#477BAE" transform="translate(45.91748046875,194.62060546875)"/>
<path d="M0 0 C0.66 0.33 1.32 0.66 2 1 C2.625 3.0625 2.625 3.0625 3 5 C2.43410156 5.25394531 1.86820313 5.50789062 1.28515625 5.76953125 C0.55167969 6.11371094 -0.18179687 6.45789063 -0.9375 6.8125 C-1.66839844 7.14894531 -2.39929688 7.48539063 -3.15234375 7.83203125 C-5.33029489 8.93600134 -5.33029489 8.93600134 -6 12 C-6.99 12 -7.98 12 -9 12 C-9 12.66 -9 13.32 -9 14 C-10.32 14.33 -11.64 14.66 -13 15 C-12.34 13.02 -11.68 11.04 -11 9 C-10.34 9 -9.68 9 -9 9 C-8.814375 8.443125 -8.62875 7.88625 -8.4375 7.3125 C-6.33639286 3.93245808 -3.29334006 2.14859619 0 0 Z " fill="#1E66AA" transform="translate(28,199)"/>
<path d="M0 0 C1.32 0 2.64 0 4 0 C4.99 2.64 5.98 5.28 7 8 C6.01 8 5.02 8 4 8 C3.67 8.99 3.34 9.98 3 11 C2.80664062 10.37609375 2.61328125 9.7521875 2.4140625 9.109375 C1.10186813 6.69286471 1.10186813 6.69286471 -2.0390625 5.953125 C-3.22242188 5.72109375 -4.40578125 5.4890625 -5.625 5.25 C-6.81351563 5.00765625 -8.00203125 4.7653125 -9.2265625 4.515625 C-10.14179688 4.34546875 -11.05703125 4.1753125 -12 4 C-12 3.67 -12 3.34 -12 3 C-7.71 3 -3.42 3 1 3 C0.67 2.01 0.34 1.02 0 0 Z " fill="#3375B3" transform="translate(198,320)"/>
<path d="M0 0 C1.485 0.99 1.485 0.99 3 2 C3.5775 2.12375 4.155 2.2475 4.75 2.375 C8.17957049 3.32765847 10.94744615 5.18020828 14 7 C13.67 7.99 13.34 8.98 13 10 C11.906875 9.67 10.81375 9.34 9.6875 9 C6.15421116 7.86913351 6.15421116 7.86913351 3 8 C0.89229241 5.11165997 0 3.61537605 0 0 Z " fill="#1D67AB" transform="translate(336,190)"/>
<path d="M0 0 C0.33 0 0.66 0 1 0 C1.125 3.375 1.125 3.375 1 7 C-1.06339685 9.06339685 -2.18443836 9.56591822 -4.875 10.5 C-7.15521612 11.30817786 -9.17859622 12.0965385 -11.3125 13.25 C-13 14 -13 14 -16 13 C-11 9.66666667 -6 6.33333333 -1 3 C-0.67 2.01 -0.34 1.02 0 0 Z " fill="#4E84B7" transform="translate(342,124)"/>
<path d="M0 0 C0.33 1.32 0.66 2.64 1 4 C-1.375 6.5625 -1.375 6.5625 -4 9 C-4.33 9.99 -4.66 10.98 -5 12 C-5.66 12 -6.32 12 -7 12 C-7.33 12.99 -7.66 13.98 -8 15 C-10 14 -10 14 -12 12 C-8.04 8.04 -4.08 4.08 0 0 Z " fill="#467FB5" transform="translate(282,419)"/>
<path d="M0 0 C0.33 0.66 0.66 1.32 1 2 C1.66 2.33 2.32 2.66 3 3 C2.1646875 3.061875 2.1646875 3.061875 1.3125 3.125 C-1.27440652 4.10382949 -1.94022154 4.93777939 -3.625 7.0625 C-4.40875 8.031875 -5.1925 9.00125 -6 10 C-6.66 10 -7.32 10 -8 10 C-7.67 10.99 -7.34 11.98 -7 13 C-9.31 13.33 -11.62 13.66 -14 14 C-12.50958227 10.20620942 -10.30937488 8.31656242 -7 6 C-6.34 6 -5.68 6 -5 6 C-5 5.34 -5 4.68 -5 4 C-4.34 4 -3.68 4 -3 4 C-3 3.34 -3 2.68 -3 2 C-2.01 1.34 -1.02 0.68 0 0 Z " fill="#568BBC" transform="translate(134,337)"/>
<path d="M0 0 C0.33 0 0.66 0 1 0 C1.1875 2.375 1.1875 2.375 1 5 C0.01 5.66 -0.98 6.32 -2 7 C-2.33 7.99 -2.66 8.98 -3 10 C-3.99 10.495 -3.99 10.495 -5 11 C-6.00582863 12.75208859 -7.00923572 14.5058438 -7.98046875 16.27734375 C-9.09359109 18.15813666 -10.3349211 19.58468294 -12 21 C-12.33 20.01 -12.66 19.02 -13 18 C-12.34 18 -11.68 18 -11 18 C-10.7525 17.113125 -10.505 16.22625 -10.25 15.3125 C-8.92877335 11.81124937 -7.41646629 9.83071765 -5 7 C-4.09526556 5.73548812 -3.19966384 4.46440056 -2.3125 3.1875 C-1.549375 2.135625 -0.78625 1.08375 0 0 Z " fill="#6592BD" transform="translate(380,302)"/>
<path d="M0 0 C1.32 0.33 2.64 0.66 4 1 C4 1.66 4 2.32 4 3 C4.66 3 5.32 3 6 3 C7.5078125 4.4609375 7.5078125 4.4609375 9.125 6.375 C9.66382813 7.00148438 10.20265625 7.62796875 10.7578125 8.2734375 C12 10 12 10 12 12 C12.66 12 13.32 12 14 12 C14 12.66 14 13.32 14 14 C11.125 13.375 11.125 13.375 8 12 C6.625 8.875 6.625 8.875 6 6 C4.35 5.67 2.7 5.34 1 5 C0.67 3.35 0.34 1.7 0 0 Z " fill="#5088B9" transform="translate(282,295)"/>
<path d="M0 0 C-1.88267985 1.88267985 -4.57062042 1.40620537 -7.08984375 1.62109375 C-9.2328948 1.86222227 -9.2328948 1.86222227 -11 4 C-13.57051911 4.85541401 -16.16617586 5.52736924 -18.78515625 6.21875 C-21.17640092 6.77386246 -21.17640092 6.77386246 -22 9 C-23.32 8.67 -24.64 8.34 -26 8 C-18.6145277 2.78093291 -9.46459372 -3.40725374 0 0 Z " fill="#598ABA" transform="translate(197,251)"/>
<path d="M0 0 C6.75 0.875 6.75 0.875 9 2 C9.33 1.34 9.66 0.68 10 0 C10 0.99 10 1.98 10 3 C10.31669821 5.33564933 10.64820803 7.6693782 11 10 C10.278125 9.2575 9.55625 8.515 8.8125 7.75 C5.74888236 4.66345325 5.74888236 4.66345325 1 1 C0.67 6.61 0.34 12.22 0 18 C-0.33 18 -0.66 18 -1 18 C-1.02690844 15.37493198 -1.04679404 12.75013827 -1.0625 10.125 C-1.07087891 9.37863281 -1.07925781 8.63226563 -1.08789062 7.86328125 C-1.11328125 2.2265625 -1.11328125 2.2265625 0 0 Z " fill="#5F92BF" transform="translate(233,272)"/>
<path d="M0 0 C1.66666667 1.66666667 3.33333333 3.33333333 5 5 C5.928125 5.886875 6.85625 6.77375 7.8125 7.6875 C10 10 10 10 10 12 C7.25 12.3125 7.25 12.3125 4 12 C1.625 9.5 1.625 9.5 0 7 C0.99 6.34 1.98 5.68 3 5 C2.01 4.67 1.02 4.34 0 4 C0 2.68 0 1.36 0 0 Z " fill="#437FB6" transform="translate(168,132)"/>
<path d="M0 0 C1 3 1 3 0.0625 5.1875 C-0.288125 5.785625 -0.63875 6.38375 -1 7 C-1.66 7 -2.32 7 -3 7 C-3 8.32 -3 9.64 -3 11 C-3.66 11 -4.32 11 -5 11 C-5.33 11.66 -5.66 12.32 -6 13 C-6.99 13.33 -7.98 13.66 -9 14 C-9 10.01669933 -8.8916326 7.97646023 -6.15234375 4.9765625 C-4.14808197 3.24448442 -2.11951333 1.58842798 0 0 Z " fill="#3777B4" transform="translate(143,329)"/>
<path d="M0 0 C0.66 0 1.32 0 2 0 C2.06058594 0.96421875 2.12117188 1.9284375 2.18359375 2.921875 C2.26738281 4.18515625 2.35117187 5.4484375 2.4375 6.75 C2.55931641 8.62945312 2.55931641 8.62945312 2.68359375 10.546875 C2.92716919 13.20515515 3.32810028 15.44678105 4 18 C4.03888349 20.33300933 4.0448635 22.66709801 4 25 C-1.06397901 17.40403149 -0.22221635 8.78989105 0 0 Z " fill="#6A96BA" transform="translate(57,380)"/>
<path d="M0 0 C0.33 0.66 0.66 1.32 1 2 C1.66 2 2.32 2 3 2 C3 2.66 3 3.32 3 4 C3.66 4 4.32 4 5 4 C5 4.66 5 5.32 5 6 C5.66 6 6.32 6 7 6 C7 6.66 7 7.32 7 8 C7.66 8 8.32 8 9 8 C10.2890625 9.53125 10.2890625 9.53125 11.625 11.5 C12.07101562 12.1496875 12.51703125 12.799375 12.9765625 13.46875 C13.48316406 14.22671875 13.48316406 14.22671875 14 15 C13.01 15.495 13.01 15.495 12 16 C12 15.34 12 14.68 12 14 C11.0409375 13.8453125 11.0409375 13.8453125 10.0625 13.6875 C9.0415625 13.3471875 9.0415625 13.3471875 8 13 C7.67 12.01 7.34 11.02 7 10 C6.01 9.67 5.02 9.34 4 9 C0.85706726 5.6774711 0 4.70264718 0 0 Z " fill="#5287B9" transform="translate(267,277)"/>
<path d="M0 0 C0 0.99 0 1.98 0 3 C-0.66 3 -1.32 3 -2 3 C-1.38722388 5.96175123 -0.74627478 7.38058783 1 10 C1.125 12.6875 1.125 12.6875 1 15 C-7 5.57142857 -7 5.57142857 -7 1 C-3.535 0.505 -3.535 0.505 0 0 Z " fill="#286DAB" transform="translate(190,185)"/>
<path d="M0 0 C0.99 0.33 1.98 0.66 3 1 C3 2.98 3 4.96 3 7 C4.32 6.67 5.64 6.34 7 6 C7.33 7.98 7.66 9.96 8 12 C7.01 12 6.02 12 5 12 C5 11.34 5 10.68 5 10 C4.34 10 3.68 10 3 10 C1.4921875 8.25 1.4921875 8.25 -0.125 6 C-0.66382813 5.2575 -1.20265625 4.515 -1.7578125 3.75 C-2.37269531 2.88375 -2.37269531 2.88375 -3 2 C-2.01 1.34 -1.02 0.68 0 0 Z " fill="#4781B8" transform="translate(162,156)"/>
<path d="M0 0 C0.66 0 1.32 0 2 0 C2 0.66 2 1.32 2 2 C2.66 2.33 3.32 2.66 4 3 C4.66 3.66 5.32 4.32 6 5 C3.25 9.875 3.25 9.875 1 11 C1 10.01 1 9.02 1 8 C0.01 8.33 -0.98 8.66 -2 9 C-2.20140476 5.37471432 -1.85776765 3.13498292 0 0 Z " fill="#1C69B6" transform="translate(274,73)"/>
<path d="M0 0 C3.59280724 5.74564015 2.72795374 14.02763175 1.546875 20.47265625 C1 22.375 1 22.375 0 25 C-0.85916865 22.02191841 -1.1285051 19.36501083 -1.1328125 16.26953125 C-1.13410156 15.38458984 -1.13539063 14.49964844 -1.13671875 13.58789062 C-1.13285156 12.67201172 -1.12898438 11.75613281 -1.125 10.8125 C-1.12886719 9.88501953 -1.13273437 8.95753906 -1.13671875 8.00195312 C-1.13542969 7.12087891 -1.13414062 6.23980469 -1.1328125 5.33203125 C-1.13168457 4.52483643 -1.13055664 3.7176416 -1.12939453 2.88598633 C-1 1 -1 1 0 0 Z " fill="#4B7DAC" transform="translate(282,45)"/>
<path d="M0 0 C0.99 0.33 1.98 0.66 3 1 C2.67 1.66 2.34 2.32 2 3 C2.66 3 3.32 3 4 3 C4 3.99 4 4.98 4 6 C4.66 6 5.32 6 6 6 C6 6.66 6 7.32 6 8 C7.3921875 7.6596875 7.3921875 7.6596875 8.8125 7.3125 C12 7 12 7 13.875 8.4375 C14.431875 9.2109375 14.431875 9.2109375 15 10 C10.63993717 11.52256162 8.2064007 10.15083433 4.1953125 8.2578125 C1.20210127 6.54284094 -0.75663611 4.60519678 -3 2 C-1.68 2.33 -0.36 2.66 1 3 C0.67 2.01 0.34 1.02 0 0 Z " fill="#5C91C2" transform="translate(101,133)"/>
<path d="M0 0 C0.33 0 0.66 0 1 0 C2.83656285 8.02210654 2.82085931 16.24263689 0 24 C-0.33 24 -0.66 24 -1 24 C-1.18451025 7.1070615 -1.18451025 7.1070615 0 0 Z " fill="#4A82B3" transform="translate(411,99)"/>
<path d="M0 0 C2 3 2 3 1.375 6.1875 C0.02763482 10.33596649 -1.94674232 14.16260093 -4 18 C-4.97591583 14.61682513 -4.85856655 12.4342662 -4 9 C-3.34 9 -2.68 9 -2 9 C-2.33 7.68 -2.66 6.36 -3 5 C-2.01 5.33 -1.02 5.66 0 6 C0 4.02 0 2.04 0 0 Z M-5 7 C-3 8 -3 8 -3 8 Z " fill="#457FB5" transform="translate(229,293)"/>
<path d="M0 0 C10.55808656 -0.55353075 10.55808656 -0.55353075 15 3 C12.06406867 3 9.23443584 2.77500573 6.3125 2.5 C5.31863281 2.4071875 4.32476562 2.314375 3.30078125 2.21875 C2.54152344 2.1465625 1.78226562 2.074375 1 2 C1 2.66 1 3.32 1 4 C0.34 4 -0.32 4 -1 4 C-1.33 4.99 -1.66 5.98 -2 7 C-4 6 -4 6 -5 4 C-4.01 4 -3.02 4 -2 4 C-1.34 2.68 -0.68 1.36 0 0 Z " fill="#6B9AC2" transform="translate(81,252)"/>
<path d="M0 0 C1.258125 0.12375 2.51625 0.2475 3.8125 0.375 C4.87404297 0.47941406 4.87404297 0.47941406 5.95703125 0.5859375 C8 1 8 1 11 3 C13.33199388 3.07905064 15.66832622 3.08798769 18 3 C18 3.99 18 4.98 18 6 C14.26731175 7.24422942 13.15898627 6.54017099 9.5625 5.125 C6.39038611 3.89068085 3.32582135 2.73907141 0 2 C0 1.34 0 0.68 0 0 Z " fill="#4986B5" transform="translate(276,201)"/>
<path d="M0 0 C1.9375 0.375 1.9375 0.375 4 1 C4.33 1.66 4.66 2.32 5 3 C5.99 3.33 6.98 3.66 8 4 C8 5.32 8 6.64 8 8 C8.639375 8.226875 9.27875 8.45375 9.9375 8.6875 C12 10 12 10 12.75 12.625 C12.87375 13.800625 12.87375 13.800625 13 15 C12.01 14.34 11.02 13.68 10 13 C10 12.34 10 11.68 10 11 C9.34 11 8.68 11 8 11 C6.56197818 9.4089357 5.19674665 7.7513985 3.875 6.0625 C3.15054688 5.14597656 2.42609375 4.22945313 1.6796875 3.28515625 C0 1 0 1 0 0 Z " fill="#4E81B2" transform="translate(251,290)"/>
<path d="M0 0 C1.32 0 2.64 0 4 0 C4 0.66 4 1.32 4 2 C5.32 1.67 6.64 1.34 8 1 C8 1.66 8 2.32 8 3 C9.423125 2.9690625 9.423125 2.9690625 10.875 2.9375 C14 3 14 3 16 4 C16 4.66 16 5.32 16 6 C18.31 6 20.62 6 23 6 C23 6.33 23 6.66 23 7 C15.79521688 7.55421409 9.60282496 5.92480691 3 3 C1.14453125 1.36328125 1.14453125 1.36328125 0 0 Z " fill="#72A2C8" transform="translate(29,268)"/>
<path d="M0 0 C2 1 2 1 3.1171875 3.16796875 C4.11525612 6.36973755 4.19853617 8.96660419 4.125 12.3125 C4.10695312 13.38113281 4.08890625 14.44976562 4.0703125 15.55078125 C4.03550781 16.76314453 4.03550781 16.76314453 4 18 C3.34 18 2.68 18 2 18 C1.66191314 15.93827387 1.32972639 13.8755797 1 11.8125 C0.814375 10.66394531 0.62875 9.51539063 0.4375 8.33203125 C0.06510523 5.49584607 -0.08596021 2.85280436 0 0 Z " fill="#5589BB" transform="translate(227,395)"/>
<path d="M0 0 C0.66 0 1.32 0 2 0 C2 0.66 2 1.32 2 2 C2.66 2 3.32 2 4 2 C4.37125 3.175625 4.37125 3.175625 4.75 4.375 C6.15389099 7.32317108 7.00675737 7.9024777 10 9 C10 9.99 10 10.98 10 12 C9.34 11.67 8.68 11.34 8 11 C5.90178785 11.39938767 5.90178785 11.39938767 4 12 C4 9.69 4 7.38 4 5 C3.34 5 2.68 5 2 5 C2 4.34 2 3.68 2 3 C1.34 3 0.68 3 0 3 C0 2.01 0 1.02 0 0 Z " fill="#5084B8" transform="translate(247,256)"/>
<path d="M0 0 C6.7281627 -0.22262303 12.53991163 0.04978464 19 2 C15.16116535 4.67135401 11.60104357 3.84057805 7.25 3.125 C6.20392578 2.96837891 6.20392578 2.96837891 5.13671875 2.80859375 C3.42274441 2.55032364 1.7111005 2.27667048 0 2 C0 1.34 0 0.68 0 0 Z " fill="#709DC3" transform="translate(90,345)"/>
<path d="M0 0 C1.485 0.99 1.485 0.99 3 2 C3.66 2 4.32 2 5 2 C5 2.66 5 3.32 5 4 C4.34 4 3.68 4 3 4 C3.495 5.1446875 3.495 5.1446875 4 6.3125 C5 9 5 9 5 12 C3.68 11.67 2.36 11.34 1 11 C0.63890458 9.35567294 0.28629924 7.7094792 -0.0625 6.0625 C-0.25972656 5.14597656 -0.45695312 4.22945313 -0.66015625 3.28515625 C-0.77230469 2.53105469 -0.88445312 1.77695312 -1 1 C-0.67 0.67 -0.34 0.34 0 0 Z " fill="#4880B4" transform="translate(369,342)"/>
<path d="M0 0 C3.491933 0.64665426 6.15389899 1.86542424 9 4 C9 5.32 9 6.64 9 8 C9.66 8.33 10.32 8.66 11 9 C11 9.66 11 10.32 11 11 C7.75161077 9.91720359 6.95717417 9.10963155 4.8125 6.5625 C4.28269531 5.94503906 3.75289063 5.32757813 3.20703125 4.69140625 C2 3 2 3 2 1 C1.34 0.67 0.68 0.34 0 0 Z " fill="#5E8FBC" transform="translate(285,329)"/>
<path d="M0 0 C4.29298926 0.47699881 6.28528652 2.79803025 9 6 C10.19991834 8.29984349 11.09107786 10.56026161 12 13 C11.34 13 10.68 13 10 13 C5 7.52380952 5 7.52380952 5 5 C4.01 4.67 3.02 4.34 2 4 C0.8125 1.9375 0.8125 1.9375 0 0 Z " fill="#5086B6" transform="translate(273,315)"/>
<path d="M0 0 C0.66 0.33 1.32 0.66 2 1 C2.46806645 3.33744294 2.82669794 5.69739079 3.125 8.0625 C3.29257812 9.35285156 3.46015625 10.64320313 3.6328125 11.97265625 C3.75398438 12.97167969 3.87515625 13.97070312 4 15 C3.01 15.66 2.02 16.32 1 17 C0.34 16.34 -0.32 15.68 -1 15 C-0.67 14.67 -0.34 14.34 0 14 C0.07271741 11.64686445 0.08370868 9.29166332 0.0625 6.9375 C0.05347656 5.64714844 0.04445313 4.35679687 0.03515625 3.02734375 C0.02355469 2.02832031 0.01195312 1.02929688 0 0 Z " fill="#4D86B9" transform="translate(312,375)"/>
<path d="M0 0 C5.46737191 1.74807129 10.75824848 3.65794081 16 6 C12.25 8 12.25 8 10 8 C9.67 7.34 9.34 6.68 9 6 C6.88672575 5.09274566 6.88672575 5.09274566 4.4375 4.375 C3.19806641 3.98441406 3.19806641 3.98441406 1.93359375 3.5859375 C1.29550781 3.39257812 0.65742187 3.19921875 0 3 C0 2.01 0 1.02 0 0 Z " fill="#4D81B2" transform="translate(118,243)"/>
<path d="M0 0 C2.41696872 -0.05411124 4.83271787 -0.09372278 7.25 -0.125 C7.93191406 -0.14175781 8.61382812 -0.15851563 9.31640625 -0.17578125 C13.0608235 -0.21213482 15.82352727 -0.07944349 19 2 C18.67 2.66 18.34 3.32 18 4 C13.38461538 3.1025641 13.38461538 3.1025641 11.125 2.5 C8.83168983 1.96039761 6.5927731 1.67866782 4.25 1.4375 C3.45078125 1.35371094 2.6515625 1.26992187 1.828125 1.18359375 C1.22484375 1.12300781 0.6215625 1.06242188 0 1 C0 0.67 0 0.34 0 0 Z " fill="#5187B8" transform="translate(293,135)"/>
<path d="M0 0 C1.98 0 3.96 0 6 0 C6 0.66 6 1.32 6 2 C8.31 2 10.62 2 13 2 C13 2.99 13 3.98 13 5 C13.99 5.33 14.98 5.66 16 6 C10.03435204 5.49228528 5.36190101 3.61407872 0 1 C0 0.67 0 0.34 0 0 Z " fill="#5186B8" transform="translate(72,418)"/>
<path d="M0 0 C1.65 0 3.3 0 5 0 C5.33 0.99 5.66 1.98 6 3 C7.0725 2.95875 8.145 2.9175 9.25 2.875 C12.65747485 2.9885825 14.20739631 3.21273364 17 5 C12.61078349 6.29477815 9.94228883 5.6054454 5.6875 4.0625 C4.61886719 3.68222656 3.55023438 3.30195313 2.44921875 2.91015625 C1.64097656 2.60980469 0.83273438 2.30945313 0 2 C0 1.34 0 0.68 0 0 Z " fill="#4A85B7" transform="translate(223,503)"/>
<path d="M0 0 C0.99 0.33 1.98 0.66 3 1 C3.5625 2.9375 3.5625 2.9375 4 5 C4.66 5.66 5.32 6.32 6 7 C6.66 7.66 7.32 8.32 8 9 C9.31747324 9.69748583 10.64914193 10.36959957 12 11 C10.25 11.6875 10.25 11.6875 8 12 C5.75 10.6875 5.75 10.6875 4 9 C4 8.34 4 7.68 4 7 C3.34 7 2.68 7 2 7 C0 4 0 4 0 0 Z " fill="#6191BC" transform="translate(212,491)"/>
<path d="M0 0 C0.33 0.66 0.66 1.32 1 2 C-1.64 3.98 -4.28 5.96 -7 8 C-8.125 3.25 -8.125 3.25 -7 1 C-4.67843403 0.59270772 -2.3431213 0.25561323 0 0 Z " fill="#4681B8" transform="translate(152,348)"/>
<path d="M0 0 C0.35707031 0.50144531 0.71414062 1.00289063 1.08203125 1.51953125 C-4.76137433 2.76280903 -9.1849337 2.09254087 -14.91796875 0.51953125 C-14.91796875 0.18953125 -14.91796875 -0.14046875 -14.91796875 -0.48046875 C-12.81604178 -0.7293417 -10.71122911 -0.95394065 -8.60546875 -1.16796875 C-6.84783203 -1.35939453 -6.84783203 -1.35939453 -5.0546875 -1.5546875 C-1.91796875 -1.48046875 -1.91796875 -1.48046875 0 0 Z " fill="#4B86BE" transform="translate(200.91796875,323.48046875)"/>
<path d="M0 0 C0.66 0 1.32 0 2 0 C2 1.32 2 2.64 2 4 C2.66 4 3.32 4 4 4 C4 7.3 4 10.6 4 14 C3.34 13.67 2.68 13.34 2 13 C1.3671875 11.07421875 1.3671875 11.07421875 0.875 8.6875 C0.70742188 7.90761719 0.53984375 7.12773437 0.3671875 6.32421875 C0 4 0 4 0 0 Z " fill="#6393BF" transform="translate(391,269)"/>
<path d="M0 0 C1.58468677 0.45363171 3.16769924 0.91311452 4.75 1.375 C5.63171875 1.63023437 6.5134375 1.88546875 7.421875 2.1484375 C9.76080572 2.9209934 11.83442562 3.83625676 14 5 C13.67 5.66 13.34 6.32 13 7 C11.35 6.67 9.7 6.34 8 6 C8 5.34 8 4.68 8 4 C7.236875 3.855625 6.47375 3.71125 5.6875 3.5625 C3 3 3 3 0 2 C0 1.34 0 0.68 0 0 Z " fill="#6291BD" transform="translate(61,196)"/>
<path d="M0 0 C3.33717549 1.3809002 5.22301036 2.8201238 7 6 C6.6875 8.25 6.6875 8.25 6 10 C6.66 10 7.32 10 8 10 C7.67 10.99 7.34 11.98 7 13 C7 12.34 7 11.68 7 11 C6.34 11 5.68 11 5 11 C4.16151196 9.54462432 3.32936066 8.08559627 2.5 6.625 C1.80390625 5.40683594 1.80390625 5.40683594 1.09375 4.1640625 C0 2 0 2 0 0 Z " fill="#5389BA" transform="translate(90,122)"/>
<path d="M0 0 C0.66 1.32 1.32 2.64 2 4 C1.38125 4.4125 0.7625 4.825 0.125 5.25 C-2.06768281 7.05573879 -2.92788417 8.4090534 -4 11 C-4.99 10.67 -5.98 10.34 -7 10 C-3.535 5.05 -3.535 5.05 0 0 Z " fill="#4E82B7" transform="translate(217,442)"/>
<path d="M0 0 C0.99 0.33 1.98 0.66 3 1 C2.67 2.65 2.34 4.3 2 6 C-0.64 6.33 -3.28 6.66 -6 7 C-4.02 4.69 -2.04 2.38 0 0 Z " fill="#3F7AAF" transform="translate(291,410)"/>
<path d="M0 0 C1.98 0 3.96 0 6 0 C4.95125002 2.62187494 4.35068687 3.79371361 1.875 5.25 C1.25625 5.4975 0.6375 5.745 0 6 C0 6.66 0 7.32 0 8 C-0.66 7.67 -1.32 7.34 -2 7 C-1.42415568 4.61435923 -0.77772405 2.33317216 0 0 Z " fill="#538EBF" transform="translate(137,357)"/>
<path d="M0 0 C1.32 0.33 2.64 0.66 4 1 C3.34 2.65 2.68 4.3 2 6 C-0.97 5.505 -0.97 5.505 -4 5 C-2.68 3.35 -1.36 1.7 0 0 Z " fill="#3676B7" transform="translate(310,391)"/>
<path d="M0 0 C2.63249349 2.45699392 4.78137264 4.56568654 6 8 C5.67 8.99 5.34 9.98 5 11 C3.29159719 9.36587557 2.06546953 8.13093906 1 6 C0.01 6.495 0.01 6.495 -1 7 C-0.67 4.69 -0.34 2.38 0 0 Z " fill="#588CBF" transform="translate(275,28)"/>
<path d="M0 0 C1.32 0.66 2.64 1.32 4 2 C2.6875 3.5 2.6875 3.5 1 5 C0.01 5 -0.98 5 -2 5 C-2 5.66 -2 6.32 -2 7 C-3.32 6.67 -4.64 6.34 -6 6 C-5.195625 5.38125 -4.39125 4.7625 -3.5625 4.125 C-0.96125481 2.25835959 -0.96125481 2.25835959 0 0 Z " fill="#4B84B6" transform="translate(150,322)"/>
<path d="M0 0 C0.82638376 2.89234315 1 4.88742431 1 8 C-4.75 6.125 -4.75 6.125 -7 5 C-7 4.34 -7 3.68 -7 3 C-6.21625 3.061875 -5.4325 3.12375 -4.625 3.1875 C-3.75875 3.125625 -2.8925 3.06375 -2 3 C-1.34 2.01 -0.68 1.02 0 0 Z " fill="#4681B8" transform="translate(157,274)"/>
<path d="M0 0 C0.99 0.495 0.99 0.495 2 1 C2 1.66 2 2.32 2 3 C2.66 3 3.32 3 4 3 C8 7.47058824 8 7.47058824 8 10 C4.12539202 8.74337038 2.0139745 7.60395437 0 4 C0 2.68 0 1.36 0 0 Z " fill="#558EB8" transform="translate(258,267)"/>
<path d="M0 0 C2.4375 0.75 2.4375 0.75 5 2 C5.625 4.0625 5.625 4.0625 6 6 C6.99 6.33 7.98 6.66 9 7 C8.67 7.66 8.34 8.32 8 9 C6 9 6 9 4.4921875 7.5390625 C3.95851563 6.90742188 3.42484375 6.27578125 2.875 5.625 C2.06675781 4.68527344 2.06675781 4.68527344 1.2421875 3.7265625 C0 2 0 2 0 0 Z " fill="#578AB9" transform="translate(15,255)"/>
<path d="M0 0 C0.66 0.33 1.32 0.66 2 1 C1.01 2.98 0.02 4.96 -1 7 C-1.66 7 -2.32 7 -3 7 C-3 6.01 -3 5.02 -3 4 C-4.32 3.67 -5.64 3.34 -7 3 C-4.69631264 1.93347808 -2.35981813 0.93578995 0 0 Z " fill="#3D7BB5" transform="translate(112,71)"/>
<path d="M0 0 C3.63 0 7.26 0 11 0 C8 3 8 3 5.95703125 3.29296875 C3.97135417 3.1953125 1.98567708 3.09765625 0 3 C0 2.01 0 1.02 0 0 Z " fill="#3C79AF" transform="translate(323,339)"/>
<path d="M0 0 C4.43458973 1.3937282 6.87378374 3.60582235 10 7 C8.68 7 7.36 7 6 7 C5.67 6.01 5.34 5.02 5 4 C4.34 3.835 3.68 3.67 3 3.5 C2.34 3.335 1.68 3.17 1 3 C0.67 2.01 0.34 1.02 0 0 Z " fill="#4B83B5" transform="translate(388,226)"/>
<path d="M0 0 C0 3.35279018 -0.35469584 5.08332445 -2 8 C-5.125 9.3125 -5.125 9.3125 -8 10 C-6.44303593 6.17836093 -3.96591316 3.81381505 -1 1 C-0.67 0.67 -0.34 0.34 0 0 Z " fill="#588DBD" transform="translate(249,204)"/>
<path d="M0 0 C1.32 0 2.64 0 4 0 C4 2.31 4 4.62 4 7 C3.01 7 2.02 7 1 7 C0.67 4.69 0.34 2.38 0 0 Z " fill="#2066A8" transform="translate(273,137)"/>
<path d="M0 0 C2.42130331 2.42130331 2.52840504 3.80111377 3.125 7.125 C3.29257813 8.03507812 3.46015625 8.94515625 3.6328125 9.8828125 C3.81457031 10.93082031 3.81457031 10.93082031 4 12 C3.01 12 2.02 12 1 12 C0.03929566 9.11788698 -0.10581883 7.30149956 -0.0625 4.3125 C-0.05347656 3.50425781 -0.04445312 2.69601562 -0.03515625 1.86328125 C-0.02355469 1.24839844 -0.01195312 0.63351562 0 0 Z " fill="#4A81B7" transform="translate(252,422)"/>
<path d="M0 0 C2.31 0.66 4.62 1.32 7 2 C6.67 2.66 6.34 3.32 6 4 C3.93359375 4.4140625 3.93359375 4.4140625 1.4375 4.625 C0.61121094 4.69976562 -0.21507812 4.77453125 -1.06640625 4.8515625 C-2.02353516 4.92503906 -2.02353516 4.92503906 -3 5 C-2.34 4.67 -1.68 4.34 -1 4 C-0.34786708 1.97536745 -0.34786708 1.97536745 0 0 Z " fill="#5283B4" transform="translate(354,404)"/>
<path d="M0 0 C0.99 0 1.98 0 3 0 C2.67 1.65 2.34 3.3 2 5 C1.34 5 0.68 5 0 5 C-0.99 6.485 -0.99 6.485 -2 8 C-2.66 8 -3.32 8 -4 8 C-2.87548273 5.0280615 -1.77706209 2.66559313 0 0 Z " fill="#3B74AD" transform="translate(385,294)"/>
<path d="M0 0 C1 2 1 2 0.4375 4.5 C-1 7 -1 7 -4.125 8.3125 C-5.07375 8.539375 -6.0225 8.76625 -7 9 C-6.02180976 7.68677212 -5.0424189 6.37443848 -4.0625 5.0625 C-3.51722656 4.33160156 -2.97195312 3.60070312 -2.41015625 2.84765625 C-1 1 -1 1 0 0 Z " fill="#5D93C0" transform="translate(240,214)"/>
<path d="M0 0 C0.66 0.33 1.32 0.66 2 1 C2.625 3.0625 2.625 3.0625 3 5 C1.35 5.66 -0.3 6.32 -2 7 C-2 6.01 -2 5.02 -2 4 C-2.66 3.67 -3.32 3.34 -4 3 C-2.68 2.01 -1.36 1.02 0 0 Z " fill="#4786BE" transform="translate(28,199)"/>
<path d="M0 0 C0.33 0.99 0.66 1.98 1 3 C-0.8125 6.1875 -0.8125 6.1875 -3 9 C-3.66 9 -4.32 9 -5 9 C-5 7.68 -5 6.36 -5 5 C-4.34 5 -3.68 5 -3 5 C-3 4.01 -3 3.02 -3 2 C-2.01 2 -1.02 2 0 2 C0 1.34 0 0.68 0 0 Z " fill="#4A80AF" transform="translate(262,189)"/>
<path d="M0 0 C3.57011026 3.732388 4.10913442 8.0949989 5 13 C3.68 12.67 2.36 12.34 1 12 C1.020625 10.948125 1.04125 9.89625 1.0625 8.8125 C1.01103198 5.67295096 0.73482813 3.03116604 0 0 Z " fill="#6394C1" transform="translate(237,354)"/>
<path d="M0 0 C1.98 0.66 3.96 1.32 6 2 C5.01 2.495 5.01 2.495 4 3 C4 3.66 4 4.32 4 5 C3.34 5 2.68 5 2 5 C2 5.66 2 6.32 2 7 C1.34 7 0.68 7 0 7 C-0.38133299 5.0085944 -0.71325582 3.00720923 -1 1 C-0.67 0.67 -0.34 0.34 0 0 Z " fill="#3576B3" transform="translate(155,339)"/>
<path d="M0 0 C1.32 0.33 2.64 0.66 4 1 C3.67 1.66 3.34 2.32 3 3 C2.34 3 1.68 3 1 3 C0.71125 3.61875 0.4225 4.2375 0.125 4.875 C-1 7 -1 7 -3 9 C-3 7.68 -3 6.36 -3 5 C-2.34 5 -1.68 5 -1 5 C-0.67 3.35 -0.34 1.7 0 0 Z " fill="#618FBC" transform="translate(381,330)"/>
<path d="M0 0 C0.33 1.32 0.66 2.64 1 4 C0.01 5.485 0.01 5.485 -1 7 C-1.66 7 -2.32 7 -3 7 C-3 8.65 -3 10.3 -3 12 C-3.33 11.34 -3.66 10.68 -4 10 C-4.66 9.67 -5.32 9.34 -6 9 C-4.02 6.03 -2.04 3.06 0 0 Z " fill="#669DC9" transform="translate(364,325)"/>
<path d="M0 0 C1.99710729 0.26191571 3.99403078 0.52574674 5.98828125 0.80859375 C8.20582199 1.01958306 9.91278603 0.78270524 12 0 C11.67 0.99 11.34 1.98 11 3 C9.5629191 3.05422947 8.12524538 3.09289723 6.6875 3.125 C5.88699219 3.14820313 5.08648437 3.17140625 4.26171875 3.1953125 C2 3 2 3 -1 1 C-0.67 0.67 -0.34 0.34 0 0 Z " fill="#2166A6" transform="translate(180,320)"/>
<path d="M0 0 C1.15224028 0.92961422 2.29659176 1.8690125 3.4375 2.8125 C4.07558594 3.33457031 4.71367187 3.85664063 5.37109375 4.39453125 C7 6 7 6 8 9 C7.34 9 6.68 9 6 9 C6 8.34 6 7.68 6 7 C3.03 6.505 3.03 6.505 0 6 C0 4.02 0 2.04 0 0 Z " fill="#6392BE" transform="translate(297,309)"/>
<path d="M0 0 C1.32 0.33 2.64 0.66 4 1 C4 1.66 4 2.32 4 3 C4.99 3 5.98 3 7 3 C7.66 4.98 8.32 6.96 9 9 C7.68103535 8.07161713 6.37001311 7.13194268 5.0625 6.1875 C4.33160156 5.66542969 3.60070312 5.14335937 2.84765625 4.60546875 C1 3 1 3 0 0 Z " fill="#5D8FBC" transform="translate(147,146)"/>
<path d="M0 0 C0.66 0 1.32 0 2 0 C2 0.66 2 1.32 2 2 C3.32 2.66 4.64 3.32 6 4 C6 4.66 6 5.32 6 6 C6.66 6 7.32 6 8 6 C7.67 6.99 7.34 7.98 7 9 C6.67 8.34 6.34 7.68 6 7 C5.360625 6.731875 4.72125 6.46375 4.0625 6.1875 C1.31843292 4.60758259 0.93109876 2.9484794 0 0 Z " fill="#6393BC" transform="translate(208,73)"/>
<path d="M0 0 C0.66 0 1.32 0 2 0 C1.67 1.98 1.34 3.96 1 6 C0.34 6 -0.32 6 -1 6 C-1.66 7.32 -2.32 8.64 -3 10 C-3.66 10 -4.32 10 -5 10 C-3.85569823 6.12697862 -2.76679902 2.99736561 0 0 Z " fill="#5E8FB9" transform="translate(212,26)"/>
<path d="M0 0 C1.0725 0.309375 2.145 0.61875 3.25 0.9375 C5.82866222 1.66812096 8.39512102 2.37482904 11 3 C11 3.66 11 4.32 11 5 C9.54052295 4.93993922 8.08220728 4.8511311 6.625 4.75 C5.81289062 4.70359375 5.00078125 4.6571875 4.1640625 4.609375 C2 4 2 4 0.7109375 1.953125 C0.47632812 1.30859375 0.24171875 0.6640625 0 0 Z " fill="#4A81B9" transform="translate(109,348)"/>
<path d="M0 0 C0.99 0.33 1.98 0.66 3 1 C3 1.99 3 2.98 3 4 C0.69 4.33 -1.62 4.66 -4 5 C-2.25 1.125 -2.25 1.125 0 0 Z " fill="#4A7FB6" transform="translate(124,346)"/>
<path d="M0 0 C0.33 0.66 0.66 1.32 1 2 C0.22265625 3.7265625 0.22265625 3.7265625 -0.9375 5.625 C-1.618125 6.73875 -2.29875 7.8525 -3 9 C-3.66 9 -4.32 9 -5 9 C-4.50769231 3.46153846 -4.50769231 3.46153846 -1.9375 1.125 C-1.298125 0.75375 -0.65875 0.3825 0 0 Z " fill="#5788B5" transform="translate(464,279)"/>
<path d="M0 0 C6.4 -0.49230769 6.4 -0.49230769 9.4375 2 C10.2109375 2.99 10.2109375 2.99 11 4 C8.04725901 4 6.50941597 3.56108169 3.8125 2.5 C3.09707031 2.2215625 2.38164062 1.943125 1.64453125 1.65625 C1.10183594 1.4396875 0.55914062 1.223125 0 1 C0 0.67 0 0.34 0 0 Z " fill="#6792BC" transform="translate(126,268)"/>
<path d="M0 0 C0 0.99 0 1.98 0 3 C-1.32 3.33 -2.64 3.66 -4 4 C-4.99 2.68 -5.98 1.36 -7 0 C-4.3333581 -1.33332095 -2.83319697 -0.67102033 0 0 Z " fill="#3979B6" transform="translate(351,217)"/>
<path d="M0 0 C0.99 0.33 1.98 0.66 3 1 C2.74438677 3.3431213 2.40729228 5.67843403 2 8 C1.01 8.495 1.01 8.495 0 9 C0 8.01 0 7.02 0 6 C-0.66 6 -1.32 6 -2 6 C-1.34 4.02 -0.68 2.04 0 0 Z " fill="#4281BC" transform="translate(268,148)"/>
<path d="M0 0 C-3.00617269 3.00617269 -5.82381598 2.59585316 -10 3 C-10 2.34 -10 1.68 -10 1 C-6.78548731 -0.60725635 -3.56387464 -0.05748185 0 0 Z " fill="#5082B1" transform="translate(258,506)"/>
<path d="M0 0 C1.65 0 3.3 0 5 0 C4.67 0.99 4.34 1.98 4 3 C3.34 3 2.68 3 2 3 C2 3.66 2 4.32 2 5 C0.02 5.99 0.02 5.99 -2 7 C-2 6.01 -2 5.02 -2 4 C-1.34 3.67 -0.68 3.34 0 3 C0 2.01 0 1.02 0 0 Z " fill="#568CBA" transform="translate(118,412)"/>
<path d="M0 0 C0.6875 1.75 0.6875 1.75 1 4 C-0.4375 6.25 -0.4375 6.25 -2 8 C-2.99 6.02 -3.98 4.04 -5 2 C-3.35 1.34 -1.7 0.68 0 0 Z " fill="#3A7AB6" transform="translate(314,352)"/>
<path d="M0 0 C0.66 0 1.32 0 2 0 C2 0.66 2 1.32 2 2 C2.66 2.33 3.32 2.66 4 3 C2.68 4.32 1.36 5.64 0 7 C-0.66 5.35 -1.32 3.7 -2 2 C-1.34 1.34 -0.68 0.68 0 0 Z " fill="#4E89C0" transform="translate(374,337)"/>
<path d="M0 0 C0 0.66 0 1.32 0 2 C-5.17578125 5.22265625 -5.17578125 5.22265625 -7 6 C-7.99 5.67 -8.98 5.34 -10 5 C-8.71186658 4.16121545 -7.41936744 3.32913217 -6.125 2.5 C-5.40570313 2.0359375 -4.68640625 1.571875 -3.9453125 1.09375 C-2 0 -2 0 0 0 Z " fill="#5F8FBC" transform="translate(413,226)"/>
<path d="M0 0 C0.99 0.33 1.98 0.66 3 1 C3 1.99 3 2.98 3 4 C3.66 4 4.32 4 5 4 C5.33 5.98 5.66 7.96 6 10 C2.51668565 6.98112756 1.20842856 4.43090471 0 0 Z " fill="#6997C2" transform="translate(201,215)"/>
<path d="M0 0 C0.66 0 1.32 0 2 0 C2.99 2.97 3.98 5.94 5 9 C4.34 9 3.68 9 3 9 C3 8.01 3 7.02 3 6 C2.01 5.67 1.02 5.34 0 5 C0 3.35 0 1.7 0 0 Z " fill="#598BBA" transform="translate(271,95)"/>
<path d="M0 0 C2 1 2 1 3.1875 3.3125 C4.03624754 6.11989571 3.99928333 7.301935 3 10 C0.64551835 7.44931155 0.01672076 6.28982642 -0.1875 2.75 C-0.125625 1.8425 -0.06375 0.935 0 0 Z " fill="#477FB3" transform="translate(205,62)"/>
<path d="M0 0 C0.66 0 1.32 0 2 0 C3.17571451 3.67410785 3.07366746 7.16929183 3 11 C0.43383368 7.15075052 0.44902324 4.5650696 0 0 Z " fill="#5F97C5" transform="translate(58,394)"/>
<path d="M0 0 C1.65 0 3.3 0 5 0 C5 1.98 5 3.96 5 6 C3.2925002 4.71937515 1.62626404 3.38232443 0 2 C0 1.34 0 0.68 0 0 Z " fill="#4881B3" transform="translate(304,348)"/>
<path d="M0 0 C0.99 0 1.98 0 3 0 C2.67 0.99 2.34 1.98 2 3 C1.34 3 0.68 3 0 3 C0 3.66 0 4.32 0 5 C-1.98 5.99 -1.98 5.99 -4 7 C-3.67 5.35 -3.34 3.7 -3 2 C-2.01 2 -1.02 2 0 2 C0 1.34 0 0.68 0 0 Z " fill="#5788B8" transform="translate(169,330)"/>
<path d="M0 0 C2.475 0.99 2.475 0.99 5 2 C5 2.66 5 3.32 5 4 C5.66 4 6.32 4 7 4 C7 4.66 7 5.32 7 6 C7.66 6 8.32 6 9 6 C8.67 6.66 8.34 7.32 8 8 C6.68 7.34 5.36 6.68 4 6 C4 5.01 4 4.02 4 3 C2.68 2.67 1.36 2.34 0 2 C0 1.34 0 0.68 0 0 Z " fill="#719DC2" transform="translate(450,224)"/>
<path d="M0 0 C1.64826111 2.96687001 2.44271087 5.65626525 3 9 C1.68 8.67 0.36 8.34 -1 8 C-0.67 5.36 -0.34 2.72 0 0 Z " fill="#598BBA" transform="translate(88,223)"/>
<path d="M0 0 C2.91517292 1.07401108 4.77810176 1.77810176 7 4 C3.71023192 5.09658936 2.28696233 4.79953138 -1 4 C-0.67 2.68 -0.34 1.36 0 0 Z " fill="#477EBA" transform="translate(351,200)"/>
<path d="M0 0 C0.99 0.33 1.98 0.66 3 1 C3.6875 3.0625 3.6875 3.0625 4 5 C4.66 5 5.32 5 6 5 C5.67 5.99 5.34 6.98 5 8 C5 7.34 5 6.68 5 6 C4.38125 5.690625 3.7625 5.38125 3.125 5.0625 C1.75 4.375 0.375 3.6875 -1 3 C-0.67 2.01 -0.34 1.02 0 0 Z " fill="#5A8AB9" transform="translate(204,179)"/>
<path d="M0 0 C0.33 0.66 0.66 1.32 1 2 C1.99 2 2.98 2 4 2 C4 2.66 4 3.32 4 4 C0.7 4 -2.6 4 -6 4 C-2 1 -2 1 0 0 Z " fill="#4D88BA" transform="translate(325,138)"/>
<path d="M0 0 C0.99 0.33 1.98 0.66 3 1 C2.67 1.66 2.34 2.32 2 3 C2.66 3 3.32 3 4 3 C4 3.99 4 4.98 4 6 C0.73045798 5.43628586 -0.82575883 4.50037734 -3 2 C-1.68 2.33 -0.36 2.66 1 3 C0.67 2.01 0.34 1.02 0 0 Z " fill="#437FB8" transform="translate(101,133)"/>
<path d="M0 0 C0.66 0 1.32 0 2 0 C2 2.31 2 4.62 2 7 C0.68 7 -0.64 7 -2 7 C-1.34 4.69 -0.68 2.38 0 0 Z " fill="#477FB6" transform="translate(90,90)"/>
<path d="M0 0 C0.33 1.32 0.66 2.64 1 4 C-2 5 -2 5 -4.1875 4.0625 C-4.785625 3.711875 -5.38375 3.36125 -6 3 C-3.375 0 -3.375 0 0 0 Z " fill="#2974BA" transform="translate(266,499)"/>
<path d="M0 0 C1.093125 0.0825 2.18625 0.165 3.3125 0.25 C3.3125 0.58 3.3125 0.91 3.3125 1.25 C1.6625 1.25 0.0125 1.25 -1.6875 1.25 C-1.6875 1.91 -1.6875 2.57 -1.6875 3.25 C-2.3475 3.25 -3.0075 3.25 -3.6875 3.25 C-3.6875 3.91 -3.6875 4.57 -3.6875 5.25 C-4.6775 4.92 -5.6675 4.59 -6.6875 4.25 C-4.79150483 0.68106792 -4.16790733 0.28256999 0 0 Z " fill="#6D99C3" transform="translate(323.6875,407.75)"/>
<path d="M0 0 C2.12046792 3.53411321 2.53199289 6.94393835 3 11 C1.5 10 1.5 10 0 8 C-0.27345479 5.28153765 -0.13491285 2.74322801 0 0 Z " fill="#5C8BB9" transform="translate(244,374)"/>
<path d="M0 0 C2 1 2 1 2.8515625 3.06640625 C3.10679687 3.89011719 3.36203125 4.71382813 3.625 5.5625 C3.88539063 6.38878906 4.14578125 7.21507812 4.4140625 8.06640625 C4.60742188 8.70449219 4.80078125 9.34257812 5 10 C4.34 10 3.68 10 3 10 C3 9.34 3 8.68 3 8 C2.34 8 1.68 8 1 8 C0.67 5.36 0.34 2.72 0 0 Z " fill="#6295C0" transform="translate(228,331)"/>
<path d="M0 0 C2.375 0.625 2.375 0.625 5 2 C6.3125 5.125 6.3125 5.125 7 8 C6.01 7.34 5.02 6.68 4 6 C4 5.34 4 4.68 4 4 C3.34 4 2.68 4 2 4 C1.34 2.68 0.68 1.36 0 0 Z " fill="#6995BE" transform="translate(257,297)"/>
<path d="M0 0 C1.65 0 3.3 0 5 0 C5.33 0.99 5.66 1.98 6 3 C6.66 3.33 7.32 3.66 8 4 C8 4.66 8 5.32 8 6 C7.34 6 6.68 6 6 6 C6 5.34 6 4.68 6 4 C5.38125 3.71125 4.7625 3.4225 4.125 3.125 C2 2 2 2 0 0 Z " fill="#578DBD" transform="translate(356,226)"/>
<path d="M0 0 C0.99 0 1.98 0 3 0 C5.1519437 3.22791555 5.20086443 4.28400809 5 8 C2.74754119 5.31158141 1.11786042 3.35358125 0 0 Z " fill="#7DA2CB" transform="translate(186,192)"/>
<path d="M0 0 C2.97 0.495 2.97 0.495 6 1 C4.71034824 2.37562854 3.37310707 3.70766393 2 5 C1.34 5 0.68 5 0 5 C-0.33 4.01 -0.66 3.02 -1 2 C-0.67 1.34 -0.34 0.68 0 0 Z " fill="#4782B6" transform="translate(340,146)"/>
<path d="M0 0 C2.16874252 0.50603992 3.99967627 0.99983813 6 2 C6 2.66 6 3.32 6 4 C6.66 4.33 7.32 4.66 8 5 C4.62537285 4.45276317 2.91765 3.9451 0 2 C0 1.34 0 0.68 0 0 Z " fill="#6092BB" transform="translate(263,17)"/>
<path d="M0 0 C-0.33 0.99 -0.66 1.98 -1 3 C-1.66 3 -2.32 3 -3 3 C-3 3.66 -3 4.32 -3 5 C-4.32 4.67 -5.64 4.34 -7 4 C-3.375 0 -3.375 0 0 0 Z " fill="#4E81B3" transform="translate(74,354)"/>
<path d="M0 0 C1.98 0 3.96 0 6 0 C4.68 1.32 3.36 2.64 2 4 C1.01 3.67 0.02 3.34 -1 3 C-0.67 2.01 -0.34 1.02 0 0 Z " fill="#5C8DBE" transform="translate(450,292)"/>
<path d="M0 0 C1.65 0 3.3 0 5 0 C-0.14285714 4.42857143 -0.14285714 4.42857143 -4 5 C-3.67 4.01 -3.34 3.02 -3 2 C-2.01 2 -1.02 2 0 2 C0 1.34 0 0.68 0 0 Z " fill="#6091BD" transform="translate(63,267)"/>
<path d="M0 0 C5.75 0.875 5.75 0.875 8 2 C7.67 2.66 7.34 3.32 7 4 C4.69 3.67 2.38 3.34 0 3 C0 2.01 0 1.02 0 0 Z " fill="#447DB2" transform="translate(92,233)"/>
<path d="M0 0 C1.37562854 1.28965176 2.70766393 2.62689293 4 4 C4 4.66 4 5.32 4 6 C2.02 5.34 0.04 4.68 -2 4 C-1.34 2.68 -0.68 1.36 0 0 Z " fill="#4888BB" transform="translate(223,210)"/>
<path d="M0 0 C0.99 0.33 1.98 0.66 3 1 C4.1875 3.5625 4.1875 3.5625 5 6 C5.66 6 6.32 6 7 6 C7 6.66 7 7.32 7 8 C5.68 7.67 4.36 7.34 3 7 C2.67 5.35 2.34 3.7 2 2 C1.34 2 0.68 2 0 2 C0 1.34 0 0.68 0 0 Z " fill="#729DC7" transform="translate(77,204)"/>
<path d="M0 0 C0 3 0 3 -1.875 5.1875 C-4 7 -4 7 -6 7 C-6 6.34 -6 5.68 -6 5 C-5.34 5 -4.68 5 -4 5 C-3.71125 4.360625 -3.4225 3.72125 -3.125 3.0625 C-2 1 -2 1 0 0 Z " fill="#4D80AF" transform="translate(23,203)"/>
<path d="M0 0 C2.97 0.495 2.97 0.495 6 1 C6.33 2.32 6.66 3.64 7 5 C5.68 4.67 4.36 4.34 3 4 C3 3.34 3 2.68 3 2 C2.01 2 1.02 2 0 2 C0 1.34 0 0.68 0 0 Z " fill="#5C8CBC" transform="translate(325,204)"/>
<path d="M0 0 C2.97 1.65 5.94 3.3 9 5 C6 6 6 6 3.375 5.3125 C2.199375 4.6628125 2.199375 4.6628125 1 4 C0.67 2.68 0.34 1.36 0 0 Z " fill="#719DC9" transform="translate(341,192)"/>
<path d="M0 0 C0.99 0 1.98 0 3 0 C3 0.66 3 1.32 3 2 C3.66 2 4.32 2 5 2 C4.67 3.65 4.34 5.3 4 7 C2.10786631 4.61426621 0.97608217 2.92824652 0 0 Z " fill="#5692BF" transform="translate(263,123)"/>
<path d="M0 0 C0.66 0.33 1.32 0.66 2 1 C-0.75 5.875 -0.75 5.875 -3 7 C-3.33 5.35 -3.66 3.7 -4 2 C-3.01 2 -2.02 2 -1 2 C-0.67 1.34 -0.34 0.68 0 0 Z " fill="#568BBC" transform="translate(278,77)"/>
<path d="M0 0 C1.32 0.33 2.64 0.66 4 1 C4.33 2.32 4.66 3.64 5 5 C3.68 4.67 2.36 4.34 1 4 C0.67 2.68 0.34 1.36 0 0 Z " fill="#5489B9" transform="translate(266,306)"/>
<path d="M0 0 C0.33 0 0.66 0 1 0 C1 1.65 1 3.3 1 5 C-0.98 5.99 -0.98 5.99 -3 7 C-2.25 2.25 -2.25 2.25 0 0 Z " fill="#4F83B4" transform="translate(380,302)"/>
<path d="M0 0 C2.64 0.33 5.28 0.66 8 1 C8 1.66 8 2.32 8 3 C5.125 3.1875 5.125 3.1875 2 3 C1.34 2.01 0.68 1.02 0 0 Z " fill="#5085B5" transform="translate(442,222)"/>
<path d="M0 0 C0.33 0.66 0.66 1.32 1 2 C1.99 2 2.98 2 4 2 C4 2.66 4 3.32 4 4 C6.475 4.99 6.475 4.99 9 6 C8.01 6.66 7.02 7.32 6 8 C5.67 7.01 5.34 6.02 5 5 C4.34 5 3.68 5 3 5 C3 4.34 3 3.68 3 3 C2.01 3 1.02 3 0 3 C0 2.01 0 1.02 0 0 Z " fill="#6891BA" transform="translate(332,185)"/>
</svg>
